<?xml version="1.0" encoding="UTF-8" standalone="no"?>
<!-- Created with Inkscape (http://www.inkscape.org/) -->

<svg
   width="252.2361mm"
   height="131.40971mm"
   viewBox="0 0 252.2361 131.40971"
   version="1.1"
   id="svg5"
   xml:space="preserve"
   inkscape:version="1.2.2 (b0a8486541, 2022-12-01)"
   sodipodi:docname="LogoFLISOL2023.svg"
   xmlns:inkscape="http://www.inkscape.org/namespaces/inkscape"
   xmlns:sodipodi="http://sodipodi.sourceforge.net/DTD/sodipodi-0.dtd"
   xmlns="http://www.w3.org/2000/svg"
   xmlns:svg="http://www.w3.org/2000/svg"><sodipodi:namedview
     id="namedview7"
     pagecolor="#ffffff"
     bordercolor="#666666"
     borderopacity="1.0"
     inkscape:showpageshadow="2"
     inkscape:pageopacity="0.0"
     inkscape:pagecheckerboard="0"
     inkscape:deskcolor="#d1d1d1"
     inkscape:document-units="mm"
     showgrid="false"
     inkscape:window-width="3567"
     inkscape:window-height="2060"
     inkscape:window-x="31"
     inkscape:window-y="54"
     inkscape:window-maximized="0"
     inkscape:current-layer="layer1" /><defs
     id="defs2" /><g
     inkscape:label="Capa 1"
     inkscape:groupmode="layer"
     id="layer1"
     transform="translate(21.286015,-83.084335)"><g
       id="g823"
       transform="translate(14,14)"><path
         style="fill:#dbdbdb;fill-opacity:1;stroke-width:0.176389"
         d="m 56.501489,169.00589 c 4e-6,-15.52222 0.0208,-21.84612 0.04622,-14.05311 0.02542,7.793 0.02542,20.493 -5e-6,28.22222 -0.02542,7.72921 -0.04622,1.35312 -0.04621,-14.16911 z m 67.308421,7.04086 c 0.008,-0.20548 0.0503,-0.24728 0.10657,-0.10657 0.051,0.12733 0.0447,0.27947 -0.0139,0.33808 -0.0586,0.0586 -0.1003,-0.0456 -0.0926,-0.23151 z m 0,-2.29305 c 0.008,-0.20549 0.0503,-0.24728 0.10657,-0.10657 0.051,0.12733 0.0447,0.27946 -0.0139,0.33808 -0.0586,0.0586 -0.1003,-0.0456 -0.0926,-0.23151 z m 12.2892,-7.42226 c 0.12127,-0.0489 0.3197,-0.0489 0.44097,0 0.12127,0.0489 0.022,0.089 -0.22048,0.089 -0.24254,0 -0.34176,-0.04 -0.22049,-0.089 z m -0.34175,-2.64951 c 0.12733,-0.051 0.27946,-0.0447 0.33807,0.0139 0.0586,0.0586 -0.0456,0.1003 -0.23151,0.0926 -0.20548,-0.008 -0.24728,-0.0503 -0.10656,-0.10657 z M 73.063957,127.46632 c 0,-1.21268 0.02818,-1.70877 0.06262,-1.10244 0.03444,0.60634 0.03444,1.59853 0,2.20487 -0.03444,0.60633 -0.06262,0.11024 -0.06262,-1.10243 z m -23.040568,-9.29698 c 0.219412,-0.0422 0.536912,-0.0406 0.705555,0.004 0.168644,0.0442 -0.01088,0.0787 -0.398931,0.0767 -0.388056,-0.002 -0.526036,-0.0381 -0.306624,-0.0803 z m 121.884731,0 c 0.21941,-0.0422 0.53691,-0.0406 0.70555,0.004 0.16863,0.0442 -0.0109,0.0787 -0.39894,0.0767 -0.38805,-0.002 -0.52604,-0.0381 -0.30661,-0.0803 z m -51.90913,-12.83983 c -1e-5,-6.88798 0.0219,-9.73147 0.0486,-6.31885 0.0268,3.41261 0.0268,9.04823 3e-5,12.52361 -0.0267,3.47537 -0.0487,0.68323 -0.0487,-6.20476 z M 80.194855,89.5986 c 0.12733,-0.051 0.279467,-0.0447 0.338079,0.0139 0.05861,0.0586 -0.04557,0.1003 -0.23151,0.0926 -0.205484,-0.008 -0.24728,-0.0503 -0.106569,-0.10656 z m 42.333335,0 c 0.12733,-0.051 0.27947,-0.0447 0.33808,0.0139 0.0586,0.0586 -0.0456,0.1003 -0.23151,0.0926 -0.20549,-0.008 -0.24728,-0.0503 -0.10657,-0.10656 z"
         id="path373" /><path
         style="fill:#cfcfcf;fill-opacity:1;stroke-width:0.176389"
         d="m 137.06925,166.32192 c 0.26679,-0.0404 0.70335,-0.0404 0.97014,0 0.26678,0.0404 0.0485,0.0735 -0.48507,0.0735 -0.53358,0 -0.75186,-0.0331 -0.48507,-0.0735 z m 2.56866,-2.63999 c 0.12733,-0.051 0.27947,-0.0447 0.33808,0.0139 0.0586,0.0586 -0.0456,0.1003 -0.23151,0.0926 -0.20548,-0.008 -0.24728,-0.0503 -0.10657,-0.10657 z M 82.958087,107.97534 c 1.3e-5,-8.34319 0.02158,-11.73051 0.04793,-7.52738 0.02635,4.20314 0.02634,11.02938 -2.3e-5,15.16944 -0.02636,4.14007 -0.04791,0.70114 -0.0479,-7.64206 z m -18.697983,-2.64583 c -1.6e-5,-6.88798 0.02187,-9.73147 0.04864,-6.31885 0.02677,3.41261 0.02678,9.04823 3e-5,12.52361 -0.02675,3.47537 -0.04865,0.68323 -0.04867,-6.20476 z m 44.227756,10.36902 -0.0377,-2.15459 -1.80798,-0.0572 -1.80799,-0.0572 1.81352,-0.0372 c 1.36045,-0.0279 1.8357,0.0206 1.90227,0.19407 0.0488,0.1272 0.0633,1.13923 0.0322,2.24895 l -0.0566,2.01769 z m 77.65697,-10.36902 c -1e-5,-6.88798 0.0219,-9.73147 0.0486,-6.31885 0.0268,3.41261 0.0268,9.04823 4e-5,12.52361 -0.0268,3.47537 -0.0487,0.68323 -0.0487,-6.20476 z M 0.05489,100.03785 c 1.4e-5,-7.47007 0.02177,-10.50028 0.04834,-6.7338 0.02657,3.76649 0.02656,9.87836 -2.6e-5,13.58195 -0.02659,3.70358 -0.04833,0.62191 -0.04831,-6.84815 z m 147.95691,13.3632 c 0.56137,-0.0351 1.4345,-0.0348 1.94027,7.1e-4 0.50578,0.0355 0.0465,0.0642 -1.02067,0.0638 -1.06715,-3.5e-4 -1.48098,-0.0294 -0.9196,-0.0646 z m -50.770073,-9.21807 c 0,-3.92906 0.0232,-5.5364 0.0516,-3.57187 0.0284,1.96453 0.0284,5.17922 0,7.14375 -0.0284,1.96453 -0.0516,0.35719 -0.0516,-3.57188 z m -58.627649,1.83739 c 0.0085,-0.20549 0.05026,-0.24728 0.106567,-0.10657 0.05095,0.12733 0.04469,0.27946 -0.01392,0.33808 -0.05861,0.0586 -0.100302,-0.0456 -0.09264,-0.23151 z m 121.884712,0 c 0.008,-0.20549 0.0503,-0.24728 0.10657,-0.10657 0.051,0.12733 0.0447,0.27946 -0.0139,0.33808 -0.0586,0.0586 -0.10031,-0.0456 -0.0927,-0.23151 z m -121.884712,-1.5875 c 0.0085,-0.20549 0.05026,-0.24728 0.106567,-0.10657 0.05095,0.12733 0.04469,0.27947 -0.01392,0.33808 -0.05861,0.0586 -0.100302,-0.0456 -0.09264,-0.23151 z m 121.884712,0 c 0.008,-0.20549 0.0503,-0.24728 0.10657,-0.10657 0.051,0.12733 0.0447,0.27947 -0.0139,0.33808 -0.0586,0.0586 -0.10031,-0.0456 -0.0927,-0.23151 z m -51.9813,-9.5103 c 3.5e-4,-1.16417 0.0289,-1.61746 0.0634,-1.00733 0.0345,0.61014 0.0343,1.56264 -7.1e-4,2.11667 -0.0349,0.55403 -0.0631,0.0548 -0.0628,-1.10934 z m 28.04583,0 c 3.6e-4,-1.16417 0.0289,-1.61746 0.0634,-1.00733 0.0345,0.61014 0.0343,1.56264 -7e-4,2.11667 -0.0349,0.55403 -0.0632,0.0548 -0.0628,-1.10934 z M 97.234137,89.80729 c 1.8e-4,-1.74625 0.0266,-2.43677 0.0587,-1.53448 0.0321,0.90229 0.0319,2.33104 -3.5e-4,3.175 -0.0323,0.84396 -0.0585,0.10573 -0.0583,-1.64052 z m -47.12461,2.61244 c 0.169774,-0.0444 0.447586,-0.0444 0.617361,0 0.169774,0.0444 0.03087,0.0807 -0.308681,0.0807 -0.339548,0 -0.478455,-0.0363 -0.30868,-0.0807 z m 121.884723,0 c 0.16977,-0.0444 0.44758,-0.0444 0.61736,0 0.16977,0.0444 0.0309,0.0807 -0.30868,0.0807 -0.33955,0 -0.47846,-0.0363 -0.30868,-0.0807 z M 83.613704,86.27951 c 0.0036,-0.29104 0.04313,-0.38875 0.08785,-0.21713 0.04472,0.17162 0.04178,0.40975 -0.0065,0.52917 -0.04832,0.11942 -0.08491,-0.021 -0.08131,-0.31204 z"
         id="path371" /><path
         style="fill:#c4c4c4;fill-opacity:1;stroke-width:0.176389"
         d="m -21.286015,169.09409 c 0,-15.47371 0.0208,-21.80387 0.04622,-14.06701 0.02542,7.73685 0.02542,20.39716 0,28.13402 -0.02542,7.73686 -0.04622,1.4067 -0.04622,-14.06701 z m 209.196905,-3.70417 c 0,-13.43642 0.0209,-18.93314 0.0465,-12.21493 0.0256,6.71821 0.0256,17.71165 0,24.42986 -0.0256,6.71821 -0.0465,1.22149 -0.0465,-12.21493 z m -64.06686,9.525 c 0,-0.43656 0.0344,-0.61515 0.0764,-0.39687 0.042,0.21828 0.042,0.57547 0,0.79375 -0.042,0.21828 -0.0764,0.0397 -0.0764,-0.39688 z m 43.43181,-14.11111 c 0.1756,-0.19403 0.35896,-0.35278 0.40746,-0.35278 0.0485,0 -0.0555,0.15875 -0.23107,0.35278 -0.17559,0.19403 -0.35895,0.35278 -0.40746,0.35278 -0.0485,0 0.0555,-0.15875 0.23107,-0.35278 z m -17.4184,-25.35121 c 0.3153,-0.0391 0.83123,-0.0391 1.14653,0 0.31529,0.0391 0.0573,0.0712 -0.57326,0.0712 -0.63059,0 -0.88856,-0.032 -0.57327,-0.0712 z"
         id="path369" /><path
         style="fill:#b9b9b9;fill-opacity:1;stroke-width:0.176389"
         d="m 140.35404,161.55346 c -0.21941,-0.27976 -0.21317,-0.286 0.0666,-0.0666 0.16977,0.13314 0.30868,0.27205 0.30868,0.30868 0,0.14517 -0.14485,0.0517 -0.37528,-0.24209 z m -5.46806,-4.93888 c -0.2194,-0.27977 -0.21316,-0.28601 0.0666,-0.0666 0.16978,0.13315 0.30868,0.27205 0.30868,0.30868 0,0.14517 -0.14485,0.0517 -0.37528,-0.24208 z M 73.657442,125.22205 c 0.315295,-0.0391 0.831233,-0.0391 1.146528,0 0.315295,0.0391 0.05733,0.0711 -0.573264,0.0711 -0.63059,0 -0.888559,-0.032 -0.573264,-0.0711 z m -63.065661,-9.43887 -0.03746,-2.06995 -5.247569,-0.0495 -5.247569,-0.0494 5.253104,-0.0414 c 4.206206,-0.0331 5.270835,0.005 5.342064,0.19046 0.04893,0.1275 0.06329,1.09984 0.03193,2.16076 l -0.05703,1.92894 z m 16.233498,-14.63806 -0.04318,-16.708004 -2.513542,-0.05419 -2.513541,-0.05419 2.519077,-0.03885 c 1.882244,-0.02903 2.540328,0.01689 2.603131,0.181634 0.04623,0.121268 0.06317,7.681736 0.03765,16.80105 l -0.04641,16.58055 z m 17.107462,4.0962 c 0,-0.33955 0.0363,-0.47846 0.08067,-0.30868 0.04436,0.16977 0.04436,0.44758 0,0.61736 -0.04437,0.16977 -0.08067,0.0309 -0.08067,-0.30868 z m 121.888279,-0.0882 c 0.002,-0.38805 0.0381,-0.52603 0.0803,-0.30662 0.0422,0.21941 0.0406,0.53691 -0.004,0.70555 -0.0442,0.16865 -0.0787,-0.0109 -0.0767,-0.39893 z m -127.186481,0 c 0.0036,-0.29104 0.04313,-0.38875 0.08785,-0.21713 0.04472,0.17162 0.04178,0.40975 -0.0065,0.52917 -0.04832,0.11942 -0.08491,-0.021 -0.08131,-0.31204 z m 121.884711,0 c 0.004,-0.29104 0.0431,-0.38875 0.0879,-0.21713 0.0447,0.17162 0.0418,0.40975 -0.007,0.52917 -0.0483,0.11942 -0.0849,-0.021 -0.0813,-0.31204 z M 77.758484,84.184445 c 0,-0.03663 0.138906,-0.175535 0.30868,-0.308681 0.279764,-0.219405 0.286002,-0.213166 0.0666,0.0666 -0.23043,0.293819 -0.375278,0.387258 -0.375278,0.242084 z"
         id="path367" /><path
         style="fill:#aeaeae;fill-opacity:1;stroke-width:0.176389"
         d="m 206.91529,193.56958 -0.0401,-3.65854 -9.4809,-0.0472 -9.48091,-0.0472 9.48644,-0.0425 c 7.56903,-0.0339 9.50393,0.003 9.57296,0.18293 0.0476,0.124 0.0631,1.81072 0.0346,3.74826 l -0.0519,3.5228 z m -44.49014,-1.60013 c 0,-0.0304 0.25797,-0.28833 0.57326,-0.57327 l 0.57327,-0.51807 -0.51807,0.57327 c -0.48292,0.53436 -0.62846,0.65434 -0.62846,0.51807 z m -16.35672,-2.00732 c 0.17163,-0.0447 0.40975,-0.0418 0.52917,0.007 0.11943,0.0483 -0.021,0.0849 -0.31203,0.0813 -0.29104,-0.004 -0.38875,-0.0431 -0.21714,-0.0879 z m -111.669963,-0.1863 c 2.588274,-0.0275 6.874523,-0.0275 9.524999,-5e-5 2.650476,0.0274 0.532797,0.0499 -4.705953,0.05 -5.23875,3e-5 -7.40732,-0.0224 -4.819046,-0.0499 z m 44.737702,-8.1137 c 1.388318,-0.0298 3.610818,-0.0298 4.938889,1.7e-4 1.328072,0.0299 0.192175,0.0543 -2.524213,0.0543 -2.716389,-9e-5 -3.802992,-0.0246 -2.414676,-0.0544 z M 142.0704,166.12488 c -0.05,-0.0808 0.0212,-0.147 0.15822,-0.147 0.13699,0 0.20819,0.0661 0.15822,0.147 -0.05,0.0808 -0.12116,0.14699 -0.15822,0.14699 -0.0371,0 -0.10825,-0.0662 -0.15822,-0.14699 z m -20.74386,-2.38905 c 0,-0.0366 0.13891,-0.17554 0.30868,-0.30869 0.27976,-0.2194 0.286,-0.21316 0.0666,0.0666 -0.23043,0.29382 -0.37528,0.38726 -0.37528,0.24209 z m -35.249933,-7.87091 c 0,-0.24253 0.04,-0.34175 0.089,-0.22048 0.0489,0.12126 0.0489,0.3197 0,0.44097 -0.0489,0.12127 -0.089,0.0221 -0.089,-0.22049 z m 62.909913,-20.40521 c 0.12734,-0.051 0.27947,-0.0447 0.33809,0.0139 0.0586,0.0586 -0.0456,0.1003 -0.23151,0.0926 -0.2055,-0.008 -0.24728,-0.0503 -0.10658,-0.10657 z m 2.64583,0 c 0.12734,-0.051 0.27948,-0.0447 0.33809,0.0139 0.0586,0.0586 -0.0456,0.1003 -0.23151,0.0926 -0.20549,-0.008 -0.24728,-0.0503 -0.10658,-0.10657 z"
         id="path365" /><path
         style="fill:#a3a3a3;fill-opacity:1;stroke-width:0.176389"
         d="m 21.751493,101.09618 c -9e-6,-9.21632 0.0214,-13.01249 0.04757,-8.43594 0.02617,4.57655 0.02618,12.11717 1.6e-5,16.75694 -0.02616,4.63977 -0.04757,0.89532 -0.04758,-8.321 z m 20.530325,13.71423 c -0.219404,-0.27976 -0.213166,-0.286 0.0666,-0.0666 0.29382,0.23043 0.387258,0.37527 0.242083,0.37527 -0.03663,0 -0.175533,-0.1389 -0.308681,-0.30868 z m 121.884712,0 c -0.21939,-0.27976 -0.21316,-0.286 0.0666,-0.0666 0.29381,0.23043 0.38726,0.37527 0.24207,0.37527 -0.0366,0 -0.17552,-0.1389 -0.30868,-0.30868 z m -19.47619,-10.62743 c 0,-3.92906 0.0232,-5.5364 0.0516,-3.57187 0.0284,1.96453 0.0284,5.17922 0,7.14375 -0.0284,1.96453 -0.0516,0.35719 -0.0516,-3.57188 z M 58.156818,95.58403 c -0.219405,-0.27977 -0.213166,-0.28601 0.0666,-0.0666 0.29382,0.23043 0.387258,0.37528 0.242083,0.37528 -0.03663,0 -0.175533,-0.13891 -0.30868,-0.30868 z m 121.884712,0 c -0.21939,-0.27977 -0.21317,-0.28601 0.0666,-0.0666 0.29382,0.23043 0.38727,0.37528 0.24208,0.37528 -0.0366,0 -0.17552,-0.13891 -0.30868,-0.30868 z m -35.35877,-5.77674 c 0,-1.74625 0.0266,-2.43677 0.0587,-1.53448 0.0321,0.90229 0.0319,2.33104 0,3.175 -0.0323,0.84396 -0.0585,0.10573 -0.0583,-1.64052 z"
         id="path363" /><path
         style="fill:#989898;fill-opacity:1;stroke-width:0.176389"
         d="m 20.51815,169.09409 c 0,-15.47371 0.0208,-21.80387 0.04622,-14.06701 0.02542,7.73685 0.02542,20.39716 0,28.13402 -0.02542,7.73686 -0.04622,1.4067 -0.04622,-14.06701 z m 124.94059,20.86978 c 0.12734,-0.051 0.27947,-0.0447 0.33809,0.0139 0.0586,0.0586 -0.0456,0.1003 -0.23151,0.0926 -0.20549,-0.008 -0.24728,-0.0503 -0.10658,-0.10657 z m 1.41112,0 c 0.12733,-0.051 0.27947,-0.0447 0.33808,0.0139 0.0586,0.0586 -0.0456,0.1003 -0.23151,0.0926 -0.20549,-0.008 -0.24728,-0.0503 -0.10657,-0.10657 z m -30.99745,-9.68379 c 0.008,-0.20548 0.0503,-0.24728 0.10657,-0.10657 0.051,0.12733 0.0447,0.27947 -0.0139,0.33808 -0.0586,0.0586 -0.1003,-0.0456 -0.0926,-0.23151 z m 44.11767,-5.45335 c 0.004,-0.29104 0.0431,-0.38875 0.0879,-0.21713 0.0447,0.17162 0.0418,0.40974 -0.007,0.52916 -0.0483,0.11943 -0.0849,-0.021 -0.0813,-0.31203 z m -26.00764,-2.85085 c 0.12127,-0.0489 0.31971,-0.0489 0.44097,0 0.12127,0.0489 0.0221,0.089 -0.22048,0.089 -0.24254,0 -0.34175,-0.04 -0.22049,-0.089 z m -13.91312,-3.01408 c -0.21941,-0.27977 -0.21317,-0.286 0.0666,-0.0666 0.29382,0.23043 0.38725,0.37528 0.24208,0.37528 -0.0366,0 -0.17553,-0.13891 -0.30868,-0.30868 z m -39.593567,-2.73403 -0.336019,-0.39688 0.396875,0.33602 c 0.372963,0.31578 0.477174,0.45773 0.336019,0.45773 -0.03347,0 -0.212066,-0.17859 -0.396875,-0.39687 z m 40.586207,-3.48368 c 0.17559,-0.19403 0.35894,-0.35278 0.40745,-0.35278 0.0485,0 -0.0555,0.15875 -0.23106,0.35278 -0.1756,0.19403 -0.35895,0.35278 -0.40746,0.35278 -0.0485,0 0.0555,-0.15875 0.23107,-0.35278 z m -44.347884,-5.21817 c 0.0085,-0.20548 0.05026,-0.24728 0.106567,-0.10657 0.05095,0.12733 0.04469,0.27947 -0.01392,0.33808 -0.05861,0.0586 -0.100301,-0.0456 -0.09264,-0.23151 z m 18.201581,-9.54434 c 0.17162,-0.0447 0.40975,-0.0418 0.52917,0.007 0.11942,0.0483 -0.021,0.0849 -0.31204,0.0813 -0.29104,-0.004 -0.38875,-0.0431 -0.21713,-0.0878 z m 36.431973,-2.99687 c 0.12733,-0.051 0.27947,-0.0447 0.33808,0.0139 0.0586,0.0586 -0.0456,0.1003 -0.23151,0.0926 -0.20548,-0.008 -0.24728,-0.0503 -0.10657,-0.10657 z m 17.10973,-9.525 c 0.12733,-0.051 0.27947,-0.0447 0.33808,0.0139 0.0586,0.0586 -0.0456,0.1003 -0.23151,0.0926 -0.20549,-0.008 -0.24728,-0.0503 -0.10657,-0.10657 z m 0.52916,-1.05833 c 0.12734,-0.051 0.27947,-0.0447 0.33809,0.0139 0.0586,0.0586 -0.0456,0.10031 -0.23151,0.0926 -0.2055,-0.008 -0.24728,-0.0503 -0.10658,-0.10657 z M -5.0598213,102.06632 c 0,-8.68274 0.0215,-12.23478 0.047777,-7.8934 0.026277,4.34137 0.026277,11.44543 0,15.7868 -0.026277,4.34137 -0.047777,0.78934 -0.047777,-7.8934 z m 144.5964513,2.34428 -0.042,-7.2689 -1.45521,-0.0594 -1.45521,-0.0594 1.46074,-0.0359 c 1.03444,-0.0254 1.48546,0.0285 1.54544,0.18482 0.0466,0.12139 0.063,3.4353 0.0365,7.36423 l -0.0482,7.14352 z M 95.094017,96.99756 c 0.46374,-0.0365 1.17811,-0.036 1.5875,0.001 0.40938,0.037 0.0299,0.0668 -0.84317,0.0663 -0.87313,-5.3e-4 -1.20808,-0.0308 -0.74433,-0.0673 z m 8.814123,-10e-4 c 0.84887,-0.0323 2.23793,-0.0323 3.0868,0 0.84888,0.0323 0.15434,0.0588 -1.5434,0.0588 -1.69774,0 -2.39227,-0.0265 -1.5434,-0.0588 z m 42.33333,0 c 0.84887,-0.0323 2.23793,-0.0323 3.08681,0 0.84887,0.0323 0.15434,0.0588 -1.54341,0.0588 -1.69774,0 -2.39227,-0.0265 -1.5434,-0.0588 z m -6.67399,-7.18886 c 1.7e-4,-1.74625 0.0266,-2.43677 0.0587,-1.53448 0.0321,0.90229 0.0319,2.33104 -3.6e-4,3.175 -0.0323,0.84396 -0.0585,0.10573 -0.0583,-1.64052 z m -14.73566,-5.864929 c -0.21941,-0.279763 -0.21317,-0.286002 0.0666,-0.0666 0.16977,0.133146 0.30868,0.272053 0.30868,0.308681 0,0.145174 -0.14485,0.05174 -0.37528,-0.242084 z"
         id="path361" /><path
         style="fill:#818181;fill-opacity:1;stroke-width:0.176389"
         d="m 130.29987,191.71596 c -0.2194,-0.27976 -0.21316,-0.286 0.0666,-0.0666 0.16977,0.13315 0.30868,0.27206 0.30868,0.30868 0,0.14518 -0.14485,0.0517 -0.37528,-0.24208 z M 29.690058,165.38992 c 0,-13.43642 0.02094,-18.93314 0.04653,-12.21493 0.02559,6.71821 0.02559,17.71165 0,24.42986 -0.02559,6.71821 -0.04653,1.22149 -0.04653,-12.21493 z m 46.861554,16.75695 c 0,-0.24254 0.04004,-0.34176 0.08897,-0.22049 0.04893,0.12127 0.04893,0.3197 0,0.44097 -0.04893,0.12127 -0.08897,0.0221 -0.08897,-0.22048 z m 39.354918,-0.88195 c 0,-0.43656 0.0344,-0.61516 0.0764,-0.39687 0.042,0.21828 0.042,0.57546 0,0.79375 -0.042,0.21828 -0.0764,0.0397 -0.0764,-0.39688 z m 44.08355,-5.55625 c 0.004,-0.29104 0.0431,-0.38875 0.0879,-0.21713 0.0447,0.17162 0.0418,0.40975 -0.007,0.52917 -0.0483,0.11942 -0.0849,-0.021 -0.0813,-0.31204 z m -0.0205,-1.6022 c 0.008,-0.20548 0.0503,-0.24728 0.10658,-0.10657 0.051,0.12733 0.0447,0.27947 -0.0139,0.33808 -0.0586,0.0586 -0.10031,-0.0456 -0.0927,-0.23151 z m -17.12364,-5.25537 c 0,-0.0366 0.13891,-0.17553 0.30868,-0.30868 0.27977,-0.2194 0.286,-0.21316 0.0666,0.0666 -0.23044,0.29382 -0.37529,0.38726 -0.37529,0.24208 z m -23.79857,-2.32935 c 0.008,-0.20548 0.0503,-0.24728 0.10657,-0.10657 0.051,0.12733 0.0447,0.27947 -0.0139,0.33808 -0.0586,0.0586 -0.1003,-0.0456 -0.0926,-0.23151 z M -7.380838,165.08134 c 2.6019477,-0.0275 6.808823,-0.0275 9.348611,6e-5 2.539788,0.0275 0.410922,0.05 -4.730814,0.05 -5.1417354,-3e-5 -7.2197446,-0.0225 -4.617797,-0.0501 z m 146.852928,-4.40982 c -0.2194,-0.27976 -0.21316,-0.286 0.0666,-0.0666 0.16978,0.13315 0.30868,0.27206 0.30868,0.30868 0,0.14518 -0.14485,0.0517 -0.37528,-0.24208 z m -1.76388,-1.5875 c -0.21941,-0.27976 -0.21317,-0.286 0.0666,-0.0666 0.29382,0.23043 0.38726,0.37528 0.24209,0.37528 -0.0366,0 -0.17554,-0.13891 -0.30868,-0.30868 z m 31.43363,-1.5581 c 0.008,-0.20548 0.0503,-0.24728 0.10658,-0.10657 0.051,0.12733 0.0447,0.27947 -0.0139,0.33808 -0.0586,0.0586 -0.10031,-0.0456 -0.0926,-0.23151 z m -92.427764,-2.11667 c 0.0085,-0.20548 0.05026,-0.24728 0.106567,-0.10657 0.05095,0.12733 0.04469,0.27947 -0.01392,0.33808 -0.05861,0.0586 -0.100301,-0.0456 -0.09264,-0.23151 z M 11.863965,144.75242 c 0,-2.08579 0.02552,-2.93908 0.0567,-1.89618 0.03119,1.0429 0.03119,2.74947 0,3.79236 -0.03118,1.0429 -0.0567,0.18962 -0.0567,-1.89618 z m 83.853112,3.2309 c 0.12733,-0.051 0.27947,-0.0447 0.33808,0.0139 0.0586,0.0586 -0.0456,0.1003 -0.23151,0.0926 -0.20549,-0.008 -0.24728,-0.0503 -0.10657,-0.10657 z m 32.984723,-2.99861 c 0.12733,-0.051 0.27947,-0.0447 0.33808,0.0139 0.0586,0.0586 -0.0456,0.1003 -0.23151,0.0926 -0.20548,-0.008 -0.24728,-0.0503 -0.10657,-0.10657 z m 2.11667,0 c 0.12733,-0.051 0.27946,-0.0447 0.33808,0.0139 0.0586,0.0586 -0.0456,0.1003 -0.23151,0.0926 -0.20549,-0.008 -0.24728,-0.0503 -0.10657,-0.10657 z m -2.03614,-1.23647 c 0.17162,-0.0447 0.40974,-0.0418 0.52916,0.007 0.11942,0.0483 -0.021,0.0849 -0.31203,0.0813 -0.29105,-0.004 -0.38875,-0.0431 -0.21713,-0.0878 z m -3.92801,-1.53186 c 0,-0.0366 0.1389,-0.17553 0.30868,-0.30868 0.27976,-0.2194 0.286,-0.21316 0.0666,0.0666 -0.23043,0.29382 -0.37528,0.38726 -0.37528,0.24208 z m 25.00312,-7.82211 c 0.3153,-0.0391 0.83123,-0.0391 1.14653,0 0.31529,0.0391 0.0573,0.0711 -0.57326,0.0711 -0.63059,0 -0.88856,-0.032 -0.57327,-0.0711 z m -68.923956,-6.46539 c 0,-0.0366 0.138906,-0.17553 0.30868,-0.30868 0.279763,-0.2194 0.286002,-0.21316 0.0666,0.0666 -0.230429,0.29382 -0.375277,0.38726 -0.375277,0.24208 z M 77.84281,107.97534 c 1.2e-5,-8.34319 0.02158,-11.73051 0.04793,-7.52738 0.02635,4.20314 0.02634,11.02938 -2.3e-5,15.16944 -0.02636,4.14007 -0.04792,0.70114 -0.0479,-7.64206 z m 47.27146,-2.64583 c -1e-5,-6.88798 0.0219,-9.73147 0.0486,-6.31885 0.0268,3.41261 0.0268,9.04823 3e-5,12.52361 -0.0267,3.47537 -0.0486,0.68323 -0.0487,-6.20476 z m -68.544952,-6.3941 c -0.219405,-0.27976 -0.213166,-0.286 0.0666,-0.0666 0.169774,0.13314 0.308681,0.27205 0.308681,0.30868 0,0.14517 -0.144849,0.0517 -0.375278,-0.24209 z m 121.884712,0 c -0.21939,-0.27976 -0.21317,-0.286 0.0666,-0.0666 0.29381,0.23043 0.38726,0.37528 0.24207,0.37528 -0.0366,0 -0.17552,-0.13891 -0.30868,-0.30869 z M 41.775152,96.35528 c 0,-0.0366 0.138906,-0.17554 0.30868,-0.30868 0.279764,-0.21941 0.286003,-0.21317 0.0666,0.0666 -0.230429,0.29382 -0.375278,0.38726 -0.375278,0.24209 z m 121.884718,0 c 0,-0.0366 0.13891,-0.17554 0.30868,-0.30868 0.27977,-0.21941 0.286,-0.21317 0.0666,0.0666 -0.23044,0.29382 -0.37529,0.38726 -0.37529,0.24209 z m -38.98194,-7.58473 c 0,-0.0366 0.13891,-0.17553 0.30868,-0.30868 0.27976,-0.2194 0.286,-0.21316 0.0666,0.0666 -0.23043,0.29382 -0.37528,0.38726 -0.37528,0.24208 z M -3.777277,86.41313 c 0.703351,-0.0335 1.854288,-0.0335 2.557639,0 0.703351,0.0335 0.127882,0.0609 -1.278819,0.0609 -1.406702,0 -1.9821703,-0.0274 -1.27882,-0.0609 z M 120.09182,84.184445 c 0,-0.03663 0.1389,-0.175535 0.30868,-0.308681 0.27976,-0.219405 0.286,-0.213166 0.0666,0.0666 -0.23043,0.293819 -0.37528,0.387258 -0.37528,0.242084 z"
         id="path359" /><path
         style="fill:#767676;fill-opacity:1;stroke-width:0.176389"
         d="m 145.10597,197.90137 c 0.12733,-0.051 0.27947,-0.0447 0.33808,0.0139 0.0586,0.0586 -0.0456,0.1003 -0.23151,0.0926 -0.20549,-0.008 -0.24728,-0.0503 -0.10657,-0.10657 z m 2.29305,0 c 0.12734,-0.051 0.27947,-0.0447 0.33809,0.0139 0.0586,0.0586 -0.0456,0.1003 -0.23151,0.0926 -0.2055,-0.008 -0.24728,-0.0503 -0.10658,-0.10657 z m -52.563883,-0.17639 c 0.12733,-0.051 0.27946,-0.0447 0.33807,0.0139 0.0586,0.0586 -0.0456,0.1003 -0.23151,0.0926 -0.20548,-0.008 -0.24728,-0.0503 -0.10656,-0.10656 z m 3.175,0 c 0.12732,-0.051 0.27946,-0.0447 0.33807,0.0139 0.0586,0.0586 -0.0456,0.1003 -0.23151,0.0926 -0.20548,-0.008 -0.24728,-0.0503 -0.10656,-0.10656 z m -116.956857,-0.5405 c 1.285434,-0.0301 3.388871,-0.0301 4.674305,0 1.285434,0.0301 0.233715,0.0548 -2.337153,0.0548 -2.570868,0 -3.622586,-0.0247 -2.337152,-0.0548 z m 53.574538,7e-5 14.019349,-0.0467 0.05331,-3.65901 0.05331,-3.65902 -0.0056,3.70417 -0.0056,3.70416 -14.067022,0.002 -14.067024,0.002 14.019352,-0.0468 z m 24.212958,-7e-5 c 1.285434,-0.0301 3.388872,-0.0301 4.674306,0 1.285433,0.0301 0.233715,0.0548 -2.337153,0.0548 -2.570868,0 -3.622587,-0.0247 -2.337153,-0.0548 z m 126.823604,-3.6e-4 c 3.90481,-0.0265 10.2945,-0.0265 14.19931,0 3.90481,0.0265 0.70996,0.0482 -7.09965,0.0482 -7.80962,0 -11.00446,-0.0217 -7.09966,-0.0482 z m -74.39201,-4.89489 c 0.22785,-0.24254 0.45396,-0.44098 0.50247,-0.44098 0.0485,0 -0.0982,0.19844 -0.32608,0.44098 -0.22785,0.24253 -0.45396,0.44097 -0.50246,0.44097 -0.0485,0 0.0982,-0.19844 0.32607,-0.44097 z m 52.56389,-1.91868 c 0,-0.0366 0.13891,-0.17554 0.30868,-0.30869 0.27977,-0.2194 0.286,-0.21316 0.0666,0.0666 -0.23044,0.29382 -0.37529,0.38726 -0.37529,0.24209 z m -26.73121,-4.03445 -0.69726,-0.74965 0.74965,0.69725 c 0.69717,0.64845 0.83071,0.80205 0.69726,0.80205 -0.0288,0 -0.36616,-0.33734 -0.74965,-0.74965 z m -32.5488,-9.61319 -0.42763,-0.48507 0.48507,0.42762 c 0.26679,0.23519 0.48507,0.45347 0.48507,0.48507 0,0.13834 -0.14284,0.0257 -0.54251,-0.42762 z M 6.572299,168.9177 c 0,-2.0858 0.02552,-2.93908 0.0567,-1.89618 0.03119,1.0429 0.03119,2.74946 0,3.79236 -0.03118,1.0429 -0.0567,0.18962 -0.0567,-1.89618 z m 125.642321,2.34214 c 0.31313,-0.039 0.86876,-0.0396 1.23472,-0.001 0.36597,0.0382 0.10977,0.0701 -0.56933,0.0709 -0.6791,7e-4 -0.97852,-0.0305 -0.66539,-0.0694 z m 35.67858,-9.81707 c 0,-0.0366 0.13891,-0.17553 0.30869,-0.30868 0.27977,-0.21941 0.28599,-0.21317 0.0666,0.0666 -0.23043,0.29382 -0.37529,0.38726 -0.37529,0.24208 z M 76.744632,156.3059 c 0.002,-0.38806 0.03808,-0.52604 0.08027,-0.30663 0.04219,0.21941 0.04059,0.53691 -0.0036,0.70556 -0.04415,0.16864 -0.07867,-0.0109 -0.07671,-0.39893 z m 34.078468,-10.71563 -0.69725,-0.74965 0.74965,0.69726 c 0.41231,0.38349 0.74965,0.72083 0.74965,0.74965 0,0.13345 -0.15361,-9e-5 -0.80205,-0.69726 z m -29.801422,-0.13229 c 0.378926,-0.38806 0.728645,-0.70556 0.777152,-0.70556 0.04851,0 -0.221837,0.3175 -0.600763,0.70556 -0.378926,0.38806 -0.728645,0.70556 -0.777152,0.70556 -0.04851,0 0.221837,-0.3175 0.600763,-0.70556 z m 48.465272,-0.47935 c 0.26812,-0.0406 0.665,-0.0395 0.88195,0.002 0.21694,0.0419 -0.002,0.075 -0.4875,0.0737 -0.48507,-0.001 -0.66257,-0.0356 -0.39445,-0.0761 z m -1.31432,-1.22864 c 0.12733,-0.051 0.27947,-0.0447 0.33808,0.0139 0.0586,0.0586 -0.0456,0.10031 -0.23151,0.0926 -0.20548,-0.008 -0.24728,-0.0503 -0.10657,-0.10657 z m 1.49164,-0.002 c 0.17162,-0.0447 0.40975,-0.0418 0.52917,0.007 0.11942,0.0483 -0.021,0.0849 -0.31204,0.0813 -0.29104,-0.004 -0.38875,-0.0431 -0.21713,-0.0879 z M -12.936139,140.916 c 4.5912547,-0.0262 12.052504,-0.0262 16.580555,2e-5 4.528051,0.0262 0.771571,0.0476 -8.3477342,0.0476 -9.1193048,-1e-5 -12.8240748,-0.0214 -8.2328208,-0.0476 z m 35.694977,5.3e-4 c 1.231201,-0.0303 3.294951,-0.0304 4.586111,-1.8e-4 1.291161,0.0302 0.283815,0.055 -2.238546,0.0551 -2.522361,1e-4 -3.578765,-0.0246 -2.347565,-0.0549 z m 36.081938,-1e-4 c 1.285434,-0.0301 3.388872,-0.0301 4.674306,0 1.285433,0.0301 0.233715,0.0548 -2.337153,0.0548 -2.570868,0 -3.622587,-0.0247 -2.337153,-0.0548 z m 122.061104,0 c 1.28544,-0.0301 3.38888,-0.0301 4.67431,0 1.28543,0.0301 0.23372,0.0548 -2.33715,0.0548 -2.57087,0 -3.62259,-0.0247 -2.33716,-0.0548 z m -86.077773,-0.69055 c 0.12127,-0.0489 0.31971,-0.0489 0.44097,0 0.12127,0.0489 0.0221,0.089 -0.22048,0.089 -0.24254,0 -0.34176,-0.04 -0.22049,-0.089 z m 2.11667,0 c 0.12126,-0.0489 0.3197,-0.0489 0.44097,0 0.12127,0.0489 0.0221,0.089 -0.22049,0.089 -0.24253,0 -0.34175,-0.04 -0.22048,-0.089 z M 58.091123,114.94271 c 0.175594,-0.19403 0.358948,-0.35278 0.407455,-0.35278 0.04851,0 -0.05547,0.15875 -0.231066,0.35278 -0.175593,0.19402 -0.358948,0.35277 -0.407454,0.35277 -0.04851,0 0.05547,-0.15875 0.231065,-0.35277 z m 121.884717,0 c 0.1756,-0.19403 0.35895,-0.35278 0.40746,-0.35278 0.0485,0 -0.0555,0.15875 -0.23107,0.35278 -0.17559,0.19402 -0.35895,0.35277 -0.40746,0.35277 -0.0485,0 0.0555,-0.15875 0.23107,-0.35277 z"
         id="path357" /><path
         style="fill:#dd4814;fill-opacity:1;stroke-width:0.176389"
         d="m 80.82853,192.15693 -0.336019,-0.39687 0.396875,0.33602 c 0.372964,0.31577 0.477175,0.45773 0.336019,0.45773 -0.03347,0 -0.212065,-0.17859 -0.396875,-0.39688 z m 54.51339,-17.90347 c -0.0615,-0.3638 -0.23227,-1.16494 -0.37961,-1.78032 -0.14735,-0.61537 -0.19989,-1.18118 -0.11677,-1.25734 0.0831,-0.0762 1.89739,-1.30654 4.03169,-2.73417 3.85197,-2.57658 3.87405,-2.59496 2.99861,-2.49433 -2.24029,0.25751 -5.59348,0.31706 -7.29867,0.12961 -2.10336,-0.23122 -5.13672,-0.8328 -5.36863,-1.06471 -0.0866,-0.0866 -0.25987,-0.6479 -0.38494,-1.24721 l -0.22739,-1.08968 0.46621,0.11916 c 1.1512,0.29424 2.87892,0.61209 4.25394,0.7826 2.59655,0.32199 9.17685,0.19903 9.17685,-0.17148 0,-0.10424 -4.30199,-4.06899 -7.39141,-6.81199 l -0.60044,-0.5331 1.99139,-1.42913 1.99139,-1.42914 3.24798,4.17767 c 1.7864,2.29771 3.31366,4.20086 3.39392,4.22921 0.17404,0.0615 0.004,0.48685 2.06865,-5.16683 0.92126,-2.52236 1.74047,-4.65355 1.82046,-4.73598 0.08,-0.0824 1.18657,0.17836 2.45904,0.57954 2.13072,0.67175 2.29933,0.75609 2.133,1.06686 -0.0993,0.1856 -1.25453,2.1774 -2.56713,4.42621 -1.31258,2.24881 -2.34354,4.13173 -2.29103,4.18425 0.14065,0.14066 2.94841,-0.95411 4.72318,-1.8416 1.82448,-0.91235 3.4322,-1.88089 4.92386,-2.9663 0.59627,-0.43386 1.14225,-0.75291 1.2133,-0.709 0.071,0.0439 0.22747,0.60074 0.34759,1.23739 0.25313,1.34153 0.44813,1.07771 -2.02973,2.74601 -2.78675,1.87627 -6.76672,3.5542 -10.60409,4.47061 l -1.25547,0.29982 -2.33861,2.65767 -2.33864,2.65767 0.12437,1.07731 c 0.22014,1.90684 0.2159,1.9548 -0.1772,2.01104 -0.31801,0.0455 -0.40116,-0.12126 -0.68592,-1.37592 l -0.32406,-1.4277 0.43541,-0.47616 c 1.41854,-1.5513 4.02324,-4.60048 4.02324,-4.70979 0,-0.38152 -1.18537,0.28554 -4.81503,2.70962 -2.2117,1.47709 -4.06926,2.81067 -4.1279,2.96349 -0.0587,0.15283 0.0138,0.96303 0.1609,1.80044 0.19439,1.1063 0.21379,1.55801 0.071,1.65217 -0.40859,0.26937 -0.62511,0.11391 -0.73327,-0.52647 z M 73.172373,127.46632 v -2.11667 l 1.367014,-3.5e-4 c 1.543113,-3.6e-4 2.347926,-0.30534 2.941976,-1.11501 0.362001,-0.4934 0.365758,-0.6378 0.414073,-15.91909 l 0.04876,-15.4211 h 2.464784 2.464784 v 15.31343 c 0,10.29358 -0.06299,15.65421 -0.192168,16.35298 -0.642652,3.47642 -3.098922,5.00708 -8.054012,5.01898 l -1.455208,0.003 z m -24.42986,-9.47166 c -4.41022,-0.58493 -8.097063,-4.0173 -9.475403,-8.82137 -0.32706,-1.13994 -0.39419,-1.81054 -0.393605,-3.93197 8.82e-4,-2.98342 0.231236,-4.07367 1.341999,-6.35 1.317055,-2.6991 4.099015,-5.03321 7.027703,-5.89638 3.688967,-1.08725 8.04914,-0.0619 10.777798,2.53465 l 1.040257,0.98988 V 94.70678 92.8941 h 2.557639 2.557639 v 12.43541 12.43542 h -2.557639 -2.557639 v -1.87345 -1.87345 l -1.227132,1.15761 c -2.368631,2.23445 -5.703294,3.26842 -9.091617,2.81902 z m 5.95758,-4.94559 c 2.006692,-0.94274 3.494373,-2.79013 4.090781,-5.07989 0.394742,-1.51552 0.354757,-4.18144 -0.08403,-5.60205 -0.423899,-1.37242 -1.524248,-3.08128 -2.462628,-3.82449 -0.374239,-0.2964 -1.143658,-0.75592 -1.709822,-1.02116 -0.934794,-0.43793 -1.216128,-0.48225 -3.061568,-0.48225 -1.930028,0 -2.089854,0.0284 -3.179493,0.56482 -2.148427,1.05767 -3.779105,3.22512 -4.210963,5.59709 -0.842562,4.62777 1.188902,8.77773 4.975332,10.16381 0.719999,0.26356 1.302274,0.32673 2.683417,0.29109 1.561579,-0.0403 1.900959,-0.10991 2.958969,-0.60697 z m 115.927137,4.94559 c -4.41021,-0.58493 -8.09706,-4.0173 -9.4754,-8.82137 -0.32706,-1.13994 -0.39419,-1.81054 -0.39361,-3.93197 0,-2.98342 0.23125,-4.07367 1.342,-6.35 1.31706,-2.6991 4.09902,-5.03321 7.02771,-5.89638 3.68896,-1.08725 8.04913,-0.0619 10.7778,2.53465 l 1.04025,0.98988 V 94.70678 92.8941 h 2.55764 2.55764 v 12.43541 12.43542 h -2.55764 -2.55764 v -1.87345 -1.87345 l -1.22714,1.15761 c -2.36862,2.23445 -5.70328,3.26842 -9.09161,2.81902 z m 5.95759,-4.94559 c 2.00669,-0.94274 3.49437,-2.79013 4.09078,-5.07989 0.39474,-1.51552 0.35475,-4.18144 -0.084,-5.60205 -0.42389,-1.37242 -1.52424,-3.08128 -2.46261,-3.82449 -0.37425,-0.2964 -1.14367,-0.75592 -1.70983,-1.02116 -0.93479,-0.43793 -1.21613,-0.48225 -3.06156,-0.48225 -1.93003,0 -2.08986,0.0284 -3.1795,0.56482 -2.14844,1.05767 -3.77912,3.22512 -4.21097,5.59709 -0.84256,4.62777 1.1889,8.77773 4.97533,10.16381 0.72,0.26356 1.30228,0.32673 2.68342,0.29109 1.56157,-0.0403 1.90096,-0.10991 2.95898,-0.60697 z M -4.9679016,102.15451 V 86.5441 h 2.4694446 2.469444 v 13.58194 13.58194 h 5.291667 5.291666 v 2.02848 2.02847 H 2.793209 -4.9679016 Z M 21.843208,101.09618 V 84.42743 h 2.469445 2.469444 v 16.66875 16.66875 h -2.469444 -2.469445 z m 81.134972,16.49675 c -1.82591,-0.2357 -2.82299,-0.68582 -3.881893,-1.75243 -1.66701,-1.67913 -1.65031,-1.57319 -1.71935,-10.90786 l -0.059,-7.9816 h -1.48944 -1.48944 V 94.92257 92.8941 h 1.49931 1.4993 v -3.08681 -3.0868 h 2.55764 2.557643 v 3.0868 3.08681 h 2.99861 2.99861 v 2.02847 2.02847 h -2.99861 -2.99861 l 7.1e-4,7.54062 c 7e-4,7.15746 0.0181,7.56921 0.3436,8.10307 0.45444,0.7453 1.19669,0.93466 3.66858,0.93588 l 1.98433,9.8e-4 v 2.11667 2.11667 l -2.24896,-0.0231 c -1.23692,-0.0127 -2.68728,-0.0797 -3.22301,-0.14887 z m 17.11364,-12.26342 V 92.8941 h 2.46944 2.46945 v 12.43541 12.43542 h -2.46945 -2.46944 z m 25.66458,12.32157 c -3.0006,-0.34584 -4.5635,-1.27939 -5.48593,-3.27689 l -0.51129,-1.10718 -0.0523,-8.15798 -0.0523,-8.15799 h -1.4911 -1.4911 V 94.92257 92.8941 h 1.49931 1.4993 v -3.08681 -3.0868 h 2.46945 2.46944 v 3.0868 3.08681 h 3.08681 3.0868 v 2.02847 2.02847 h -3.0868 -3.08681 l 0.01,7.27604 c 0.0108,7.84884 0.0468,8.19239 0.92832,8.84702 0.43545,0.32338 0.7919,0.37648 2.86632,0.42706 l 2.36902,0.0578 v 2.103 2.103 l -2.24896,-0.0264 c -1.23692,-0.0145 -2.48708,-0.0539 -2.77812,-0.0874 z M 79.174842,89.27374 c -0.812309,-0.36606 -1.20884,-0.74302 -1.611517,-1.53199 -0.725168,-1.42084 -0.233928,-3.261408 1.107361,-4.14903 0.988211,-0.653968 2.449431,-0.680193 3.354251,-0.0602 2.593951,1.7774 1.704178,5.62262 -1.372289,5.93044 -0.57271,0.0573 -1.072854,-0.007 -1.477806,-0.18922 z m 42.368778,0.0481 c -0.76436,-0.24505 -1.73856,-1.34832 -1.97898,-2.24117 -0.61941,-2.300331 1.5754,-4.508121 3.86793,-3.890805 1.4377,0.387131 2.35409,1.589865 2.35409,3.089665 0,2.25251 -2.07216,3.73827 -4.24304,3.04231 z"
         id="path355" /><path
         style="fill:#77216f;fill-opacity:1;stroke-width:0.176389"
         d="m 144.04989,197.83653 c -8.95625,-0.79689 -15.9749,-6.24585 -18.76995,-14.57214 -0.9393,-2.79814 -1.19161,-4.59347 -1.2082,-8.59701 l -0.0153,-3.68713 -0.6204,-0.21478 c -5.26545,-1.82295 -5.63457,-5.35608 -0.94861,-9.07984 0.70376,-0.55926 1.99962,-1.4324 2.87968,-1.94031 1.36709,-0.78899 1.58637,-0.97823 1.50582,-1.2995 -0.0519,-0.20682 -0.79962,-3.82836 -1.66169,-8.04787 -1.5162,-7.4212 -1.55827,-7.69108 -1.28786,-8.26092 1.29494,-2.72888 12.42844,-6.433 22.40544,-7.4543 2.58429,-0.26454 7.23861,-0.12423 8.43051,0.25415 1.67188,0.53077 1.61452,0.38223 3.24564,8.40443 0.79887,3.92907 1.52864,7.50753 1.6217,7.95215 l 0.16921,0.8084 2.14912,0.30163 c 5.72326,0.80325 8.76151,2.95768 8.07059,5.72287 -0.28968,1.15944 -1.09111,2.33294 -2.43286,3.56241 l -1.15179,1.05541 0.71311,1.54336 c 0.89399,1.93486 1.55434,4.02719 1.92694,6.10553 0.40342,2.2502 0.39323,6.70252 -0.0206,9.01977 -1.85004,10.35823 -9.90803,17.55064 -20.64814,18.43011 -1.16416,0.0953 -2.27541,0.16352 -2.46944,0.15153 -0.19403,-0.012 -1.04133,-0.0831 -1.8829,-0.15795 z m 6.0232,-8.28372 c 4.12615,-1.16885 7.4086,-4.18728 8.91987,-8.20237 0.78505,-2.0857 1.01462,-3.50228 1.02861,-6.34732 0.0138,-2.78223 -0.26077,-4.64965 -0.95672,-6.50971 -0.61339,-1.63942 -0.49189,-1.60883 -2.90151,-0.73057 -3.6244,1.32101 -8.83704,2.63739 -13.18506,3.3297 -1.45184,0.23117 -1.54341,0.22721 -1.54341,-0.0667 0,-0.25121 0.25055,-0.35295 1.27882,-0.51931 10.69224,-1.72983 20.27936,-5.42262 24.43898,-9.41344 1.20001,-1.15132 1.86727,-2.14161 2.05693,-3.05268 0.38468,-1.84796 -1.38129,-3.54599 -4.62178,-4.44398 -1.23449,-0.34209 -4.40507,-0.83987 -4.53275,-0.71163 -0.0382,0.0383 0.16414,1.2206 0.44954,2.62731 l 0.5189,2.55763 -0.3825,0.31309 c -0.21038,0.17221 -0.40786,0.28774 -0.43884,0.25676 -0.031,-0.031 -0.17591,-0.64813 -0.32205,-1.37143 -0.14614,-0.72329 -1.07338,-5.32352 -2.0605,-10.22272 -0.98714,-4.8992 -1.81951,-8.93705 -1.84969,-8.973 -0.0302,-0.036 -0.35621,0.16774 -0.7245,0.45264 -2.9078,2.24951 -9.86142,4.51181 -17.8675,5.81305 -3.66827,0.59621 -9.36177,0.76985 -11.18252,0.34104 -0.66911,-0.15758 -1.24219,-0.26088 -1.27352,-0.22955 -0.0313,0.0313 0.88736,4.65566 2.04153,10.2763 1.15418,5.62063 2.07058,10.24724 2.03646,10.28136 -0.0341,0.0341 -0.22227,0.0112 -0.41812,-0.051 -0.39839,-0.12645 -0.69416,-1.00134 -1.1653,-3.44697 -0.41088,-2.13284 -0.31943,-2.02746 -1.28113,-1.47622 -2.76966,1.58753 -5.03563,3.59409 -5.69206,5.04045 -1.65694,3.65081 2.81081,6.04464 11.53795,6.18206 2.44582,0.0385 2.7493,0.0762 2.75004,0.34132 5.3e-4,0.21726 -0.17844,0.31287 -0.66062,0.35278 l -0.66146,0.0548 0.0116,3.35138 c 0.0137,3.95559 0.28605,5.30425 1.6209,8.0257 1.67031,3.40536 4.95281,5.81294 8.88397,6.51604 1.47198,0.26327 4.62523,0.0864 6.14747,-0.34482 z m -14.28266,-17.94389 c 0,-0.30811 0.16476,-0.36073 1.45521,-0.46481 0.80036,-0.0646 1.83224,-0.16556 2.29305,-0.22447 0.75724,-0.0968 0.83785,-0.073 0.83785,0.24753 0,0.31934 -0.15362,0.36626 -1.5434,0.47144 -0.84887,0.0642 -1.88075,0.16202 -2.29306,0.21728 -0.66223,0.0888 -0.74965,0.06 -0.74965,-0.24697 z m -3.95027,-27.91703 c 7.724,-0.60645 16.89019,-2.85552 21.57841,-5.2946 1.60677,-0.83593 2.35374,-1.45739 2.27061,-1.88909 -0.1115,-0.57894 -1.63296,-0.96055 -4.22637,-1.06006 -6.81486,-0.2615 -17.7249,1.99226 -23.73367,4.90282 -1.80806,0.87579 -3.32859,2.06568 -3.18855,2.49516 0.27153,0.83274 3.17738,1.16943 7.29957,0.84577 z m -38.058223,53.97912 c -5.21295,-0.50036 -9.436017,-2.27332 -12.558393,-5.27234 -2.811196,-2.70013 -4.523394,-6.37753 -4.523394,-9.7152 v -0.88938 h 4.818334 4.818333 l 0.2327,1.1707 c 0.68702,3.4564 3.34891,6.12043 6.85881,6.86435 1.53123,0.32454 4.90241,0.31866 6.46696,-0.0113 2.749663,-0.57986 4.911033,-2.17545 6.039703,-4.45869 0.65565,-1.32634 0.66308,-1.3652 0.66308,-3.46746 0,-1.94904 -0.0403,-2.21203 -0.48346,-3.15813 -0.61614,-1.31526 -2.20061,-2.85852 -3.78827,-3.68975 -1.5688,-0.82135 -4.177033,-1.71655 -7.887343,-2.70712 -4.17126,-1.11362 -8.5452,-2.59267 -10.175462,-3.44083 -3.414718,-1.77653 -6.017682,-4.90246 -6.958579,-8.35664 -0.393936,-1.44621 -0.54024,-5.59478 -0.25443,-7.21462 1.131046,-6.41023 6.097887,-11.02452 13.496151,-12.53819 3.44499,-0.70483 8.31544,-0.64061 11.603923,0.15301 3.68161,0.8885 6.29607,2.34414 8.87185,4.93954 1.35119,1.36148 1.7417,1.89309 2.49293,3.3937 0.82206,1.6421 1.40846,3.57024 1.69724,5.58071 l 0.0954,0.66414 -5.05571,-0.0468 -5.05571,-0.0468 -0.13506,-0.79375 c -0.3525,-2.07165 -2.17985,-4.36121 -4.35857,-5.46103 -1.716203,-0.86633 -3.017743,-1.12986 -5.570173,-1.1278 -1.97444,0.002 -2.47926,0.0635 -3.63319,0.44585 -2.50723,0.83067 -4.09773,2.23776 -4.9499,4.37909 -0.31065,0.78061 -0.38869,1.3492 -0.39941,2.91042 -0.012,1.74073 0.0342,2.04162 0.44878,2.92567 1.10716,2.36092 3.58381,3.88403 8.85024,5.44281 1.32963,0.39355 3.50892,1.0375 4.842863,1.431 6.59105,1.94429 9.26545,3.23383 11.64811,5.6165 2.96887,2.96886 4.06279,6.01355 3.87232,10.77777 -0.12829,3.20902 -0.89151,5.44545 -2.80722,8.22594 -1.94039,2.81631 -5.22888,5.217 -8.78856,6.41592 -2.73546,0.92131 -7.174203,1.37165 -10.434883,1.05867 z M -21.195679,169.09409 V 141.04826 H -4.7033182 11.789042 v 3.70416 3.70417 h -11.906249 -11.90625 v 8.37847 8.37847 h 9.260416 9.260417 v 3.70417 3.70417 h -9.260417 -9.260416 v 12.25902 12.25903 h -4.586111 -4.586111 z m 41.804165,0 v -28.04583 h 4.497917 4.497916 v 24.42986 24.42986 h 9.525 9.524999 v 3.61597 3.61597 H 34.631402 20.608486 Z m 35.983332,0 v -28.04583 h 4.586111 4.586111 v 28.04583 28.04583 h -4.586111 -4.586111 z m 122.061112,0 v -28.04583 h 4.58611 4.58611 v 24.42986 24.42986 h 9.525 9.525 v 3.61597 3.61597 h -14.11111 -14.11111 z"
         id="path353" /></g></g></svg>
